<?xml version="1.0" encoding="utf-8"?>
<!-- Generator: Adobe Illustrator 16.0.0, SVG Export Plug-In . SVG Version: 6.00 Build 0)  -->
<!DOCTYPE svg PUBLIC "-//W3C//DTD SVG 1.1//EN" "http://www.w3.org/Graphics/SVG/1.1/DTD/svg11.dtd">
<svg version="1.1" id="Layer_1" xmlns="http://www.w3.org/2000/svg" xmlns:xlink="http://www.w3.org/1999/xlink" x="0px" y="0px"
	 width="352.667px" height="382.333px" viewBox="0 0 352.667 382.333" enable-background="new 0 0 352.667 382.333"
	 xml:space="preserve">
<rect display="none" fill="#4686C6" width="352.667" height="382.333"/>
<g>
	<path fill-rule="evenodd" clip-rule="evenodd" fill="#FFFFFF" d="M81.138,99.922l-7.373-7.375L94.96,70.432l7.373,7.373
		L81.138,99.922z M51.187,91.627c-23.668,0-42.854-19.392-42.854-43.313C8.333,24.392,27.519,5,51.187,5
		c23.666,0,42.852,19.392,42.852,43.315C94.039,72.235,74.853,91.627,51.187,91.627z M50.726,16.058
		c-17.814,0-32.255,14.441-32.255,32.257c0,17.814,14.441,32.255,32.255,32.255c17.813,0,32.253-14.441,32.253-32.255
		C82.979,30.499,68.539,16.058,50.726,16.058z"/>
</g>
<g>
	<path fill-rule="evenodd" clip-rule="evenodd" fill="#FFFFFF" d="M55,201.506c-25.959,0-47-21.271-47-47.506
		c0-26.237,21.041-47.506,47-47.506c25.955,0,47,21.269,47,47.506C102,180.234,80.955,201.506,55,201.506z M54.494,118.622
		c-19.54,0-35.377,15.839-35.377,35.378s15.838,35.373,35.377,35.373c19.535,0,35.373-15.834,35.373-35.373
		S74.029,118.622,54.494,118.622z M72.183,160.066c-3.632,0-6.572-2.945-6.572-6.572s2.94-6.57,6.572-6.57
		c3.627,0,6.568,2.943,6.568,6.57S75.81,160.066,72.183,160.066z M38.829,160.066c-3.631,0-6.572-2.945-6.572-6.572
		s2.94-6.57,6.572-6.57c3.627,0,6.568,2.943,6.568,6.57S42.456,160.066,38.829,160.066z"/>
</g>
<g>
	<path fill-rule="evenodd" clip-rule="evenodd" fill="#FFFFFF" d="M156.806,98.298c-25.503,0-46.175-20.896-46.175-46.67
		c0-25.776,20.671-46.672,46.175-46.672c25.499,0,46.175,20.896,46.175,46.672C202.98,77.402,182.305,98.298,156.806,98.298z
		 M156.309,16.872c-19.196,0-34.757,15.56-34.757,34.756c0,19.194,15.561,34.754,34.757,34.754c19.192,0,34.752-15.56,34.752-34.754
		C191.061,32.431,175.501,16.872,156.309,16.872z M156.806,77.445c-15.083,0-27.31-11.78-27.31-26.314s12.227-26.316,27.31-26.316
		c15.079,0,27.306,11.782,27.306,26.316S171.885,77.445,156.806,77.445z M156.806,34.747c-9.051,0-16.384,7.335-16.384,16.384
		s7.333,16.385,16.384,16.385c9.047,0,16.384-7.336,16.384-16.385S165.853,34.747,156.806,34.747z M156.806,57.585
		c-3.568,0-6.457-2.891-6.457-6.455c0-3.565,2.889-6.455,6.457-6.455c3.563,0,6.453,2.889,6.453,6.455
		C163.259,54.695,160.369,57.585,156.806,57.585z"/>
</g>
<rect id="_x3C_Slice_x3E__1_" x="110" y="4" fill-rule="evenodd" clip-rule="evenodd" fill="none" width="94" height="96"/>
<rect id="_x3C_Slice_x3E__2_" x="8" y="4" fill-rule="evenodd" clip-rule="evenodd" fill="none" width="94" height="96"/>
<rect id="_x3C_Slice_x3E__3_" x="8" y="106" fill-rule="evenodd" clip-rule="evenodd" fill="none" width="94" height="96"/>
<g>
	<path fill-rule="evenodd" clip-rule="evenodd" fill="#FFFFFF" d="M165.64,100h8.094l-40.467,66.771h48.56l-14.161,25.292H110
		L165.64,100z"/>
	<path fill-rule="evenodd" clip-rule="evenodd" fill="#FFFFFF" d="M189.92,100l-36.42,60.703h8.093L197,100H189.92z"/>
</g>
<rect id="_x3C_Slice_x3E_" x="110" y="100" fill-rule="evenodd" clip-rule="evenodd" fill="none" width="87" height="92"/>
<g>
	<path fill-rule="evenodd" clip-rule="evenodd" fill="#FFFFFF" d="M235.36,192.031h-8.094l40.467-66.771h-48.56l14.161-25.293H291
		L235.36,192.031z"/>
	<path fill-rule="evenodd" clip-rule="evenodd" fill="#FFFFFF" d="M211.08,192.031l36.419-60.703h-8.092L204,192.031H211.08z"/>
</g>
<rect id="_x3C_Slice_x3E__4_" x="204" y="100" fill-rule="evenodd" clip-rule="evenodd" fill="none" width="87" height="92"/>
</svg>
