<?xml version="1.0" encoding="utf-8"?>
<!-- Generator: Adobe Illustrator 16.0.0, SVG Export Plug-In . SVG Version: 6.00 Build 0)  -->
<!DOCTYPE svg PUBLIC "-//W3C//DTD SVG 1.1//EN" "http://www.w3.org/Graphics/SVG/1.1/DTD/svg11.dtd">
<svg version="1.1" id="Layer_1" xmlns="http://www.w3.org/2000/svg" xmlns:xlink="http://www.w3.org/1999/xlink" x="0px" y="0px"
	 width="664px" height="739px" viewBox="0 0 664 739" enable-background="new 0 0 664 739" xml:space="preserve">
<rect display="none" fill="#4686C6" width="664" height="739"/>
<g>
	<path fill="#FFFFFF" d="M81.138,99.922l-7.373-7.375L94.96,70.432l7.373,7.373L81.138,99.922z M51.187,91.627
		c-23.668,0-42.854-19.392-42.854-43.313C8.333,24.392,27.519,5,51.187,5c23.666,0,42.852,19.392,42.852,43.315
		C94.039,72.235,74.853,91.627,51.187,91.627z M50.726,16.058c-17.814,0-32.255,14.441-32.255,32.257
		c0,17.814,14.441,32.255,32.255,32.255c17.813,0,32.253-14.441,32.253-32.255C82.979,30.499,68.539,16.058,50.726,16.058z"/>
</g>
<g>
	<path fill="#FFFFFF" d="M55,201.506c-25.959,0-47-21.271-47-47.506c0-26.237,21.041-47.506,47-47.506c25.955,0,47,21.269,47,47.506
		C102,180.234,80.955,201.506,55,201.506z M54.494,118.622c-19.54,0-35.377,15.839-35.377,35.378s15.838,35.373,35.377,35.373
		c19.535,0,35.373-15.834,35.373-35.373S74.029,118.622,54.494,118.622z M72.183,160.066c-3.632,0-6.572-2.945-6.572-6.572
		s2.94-6.57,6.572-6.57c3.627,0,6.568,2.943,6.568,6.57S75.81,160.066,72.183,160.066z M38.829,160.066
		c-3.631,0-6.572-2.945-6.572-6.572s2.94-6.57,6.572-6.57c3.627,0,6.568,2.943,6.568,6.57S42.456,160.066,38.829,160.066z"/>
</g>
<g>
	<path fill="#FFFFFF" d="M156.807,98.298c-25.503,0-46.176-20.896-46.176-46.67c0-25.776,20.671-46.672,46.176-46.672
		c25.498,0,46.174,20.896,46.174,46.672C202.98,77.402,182.305,98.298,156.807,98.298z M156.309,16.872
		c-19.195,0-34.757,15.56-34.757,34.756c0,19.194,15.562,34.754,34.757,34.754c19.192,0,34.752-15.56,34.752-34.754
		C191.061,32.431,175.501,16.872,156.309,16.872z M156.807,77.445c-15.084,0-27.311-11.78-27.311-26.314
		c0-14.534,12.227-26.316,27.311-26.316c15.078,0,27.305,11.782,27.305,26.316C184.111,65.665,171.885,77.445,156.807,77.445z
		 M156.807,34.747c-9.052,0-16.385,7.335-16.385,16.384c0,9.049,7.333,16.385,16.385,16.385c9.047,0,16.383-7.336,16.383-16.385
		C173.189,42.082,165.854,34.747,156.807,34.747z M156.807,57.585c-3.568,0-6.457-2.891-6.457-6.455
		c0-3.565,2.889-6.455,6.457-6.455c3.563,0,6.452,2.889,6.452,6.455C163.259,54.695,160.369,57.585,156.807,57.585z"/>
</g>
<rect id="_x3C_Slice_x3E__1_" x="110" y="4" fill="none" width="94" height="96"/>
<rect id="_x3C_Slice_x3E__2_" x="8" y="4" fill="none" width="94" height="96"/>
<rect id="_x3C_Slice_x3E__3_" x="8" y="106" fill="none" width="94" height="96"/>
<g>
	<path fill="#FFFFFF" d="M165.641,100h8.094l-40.467,66.771h48.561l-14.162,25.291H110L165.641,100z"/>
	<path fill="#FFFFFF" d="M189.92,100l-36.42,60.703h8.093L197,100H189.92z"/>
</g>
<rect id="_x3C_Slice_x3E_" x="113.5" y="100" fill="none" width="87" height="92"/>
<g>
	<path fill="#FFFFFF" d="M238.859,192.031h-8.094l40.467-66.771h-48.559l14.16-25.293H294.5L238.859,192.031z"/>
	<path fill="#FFFFFF" d="M214.58,192.031L251,131.328h-8.092L207.5,192.031H214.58z"/>
</g>
<rect id="_x3C_Slice_x3E__4_" x="204" y="100" fill="none" width="87" height="92"/>
<g>
	<path fill-rule="evenodd" clip-rule="evenodd" fill="#7F8287" d="M77.725,288.688c0.544,7.227-3.878,13.803-11.119,14.705
		c-7.23,0.895-13.555-4.227-14.097-11.449c-0.553-7.215,4.887-13.799,12.118-14.693c2.29-0.283,4.477,0.033,6.434,0.83l0.708-31.621
		l-28.967-6.616L43.091,282h-0.067c0.016,0,0.049-0.14,0.049-0.009c0.548,7.219-4.875,13.599-12.106,14.501
		c-7.245,0.895-13.547-4.321-14.096-11.536c-0.557-7.221,5.034-15.348,14.104-14.738c2.301,0.146,4.477,0.008,6.434,0.813
		l0.396-52.523l0,0l39.955,9.245L77.734,229H78l0,0v0.477v59.936l-0.211-1.078C77.812,288.461,77.714,288.566,77.725,288.688z
		 M43,228.482v5.994l29,7.99v-6.99L43,228.482z"/>
</g>
<rect id="_x3C_Slice_x3E__5_" x="15" y="218" fill="none" width="64" height="86"/>
<rect x="89.142" y="236.814" display="none" fill-rule="evenodd" clip-rule="evenodd" fill="#81B2E0" width="52" height="52"/>
<g>
	<path fill-rule="evenodd" clip-rule="evenodd" fill="none" stroke="#FFFFFF" stroke-width="2" stroke-miterlimit="10" d="
		M123.642,250.815l-17,11.999l17,12"/>
</g>
<rect id="_x3C_Slice_x3E__6_" x="89" y="237" fill-rule="evenodd" clip-rule="evenodd" fill="none" width="52" height="52"/>
<rect x="158.142" y="236.814" display="none" fill-rule="evenodd" clip-rule="evenodd" fill="#81B2E0" width="52" height="52"/>
<g>
	<path fill-rule="evenodd" clip-rule="evenodd" fill="none" stroke="#6E6E6E" stroke-width="2" stroke-miterlimit="10" d="
		M192.642,250.815l-17,11.999l17,12"/>
</g>
<rect id="_x3C_Slice_x3E__7_" x="158" y="237" fill-rule="evenodd" clip-rule="evenodd" fill="none" width="52" height="52"/>
<g>
	<path fill="#ADAEB1" d="M369.641,99h8.094l-40.467,66.771h48.561l-14.162,25.291H314L369.641,99z"/>
	<path fill="#ADAEB1" d="M393.92,99l-36.42,60.703h8.093L401,99H393.92z"/>
</g>
<g>
	<path fill="#ADAEB1" d="M443.359,191.064h-8.094l40.467-66.771h-48.559L441.334,99H499L443.359,191.064z"/>
	<path fill="#ADAEB1" d="M419.08,191.064l36.42-60.703h-8.092L412,191.064H419.08z"/>
</g>
<rect id="_x3C_Slice_x3E__8_" x="314" y="99" fill="none" width="88" height="92"/>
<rect id="_x3C_Slice_x3E__9_" x="411" y="99" fill="none" width="88" height="92"/>
<rect x="226.75" y="249.407" display="none" fill-rule="evenodd" clip-rule="evenodd" fill="#1C2E49" width="45" height="45"/>
<rect x="277.625" y="249.453" display="none" fill-rule="evenodd" clip-rule="evenodd" fill="#1C2E49" width="45" height="45"/>
<g>
	<path fill-rule="evenodd" clip-rule="evenodd" fill="none" stroke="#FFFFFF" stroke-width="2" stroke-miterlimit="10" d="
		M238.749,263.907l11.003,16l9.998-16"/>
</g>
<g>
	<path fill-rule="evenodd" clip-rule="evenodd" fill="none" stroke="#6E6E6E" stroke-width="2" stroke-miterlimit="10" d="
		M289.624,263.953l11.003,16l9.998-16"/>
</g>
<rect x="225.75" y="305.407" display="none" fill-rule="evenodd" clip-rule="evenodd" fill="#1C2E49" width="45" height="45"/>
<g>
	<path fill-rule="evenodd" clip-rule="evenodd" fill="none" stroke="#4686C6" stroke-width="2" stroke-miterlimit="10" d="
		M237.749,319.907l11.003,16l9.998-16"/>
</g>
<rect id="_x3C_Slice_x3E__10_" x="226" y="249" fill-rule="evenodd" clip-rule="evenodd" fill="none" width="45" height="46"/>
<rect id="_x3C_Slice_x3E__11_" x="226" y="305" fill-rule="evenodd" clip-rule="evenodd" fill="none" width="45" height="46"/>
<rect x="277.625" y="305.453" display="none" fill-rule="evenodd" clip-rule="evenodd" fill="#1C2E49" width="45" height="45"/>
<g>
	<path fill-rule="evenodd" clip-rule="evenodd" fill="none" stroke="#FFD153" stroke-width="2" stroke-miterlimit="10" d="
		M289.624,319.953l11.003,16l9.998-16"/>
</g>
<rect id="_x3C_Slice_x3E__12_" x="277" y="305" fill-rule="evenodd" clip-rule="evenodd" fill="none" width="45" height="46"/>
<rect id="_x3C_Slice_x3E__13_" x="277" y="249" fill-rule="evenodd" clip-rule="evenodd" fill="none" width="45" height="46"/>
<rect id="_x3C_Slice_x3E__14_" x="-60" y="-57" fill-rule="evenodd" clip-rule="evenodd" fill="none" width="934" height="932"/>
</svg>
